<?xml version="1.0" encoding="UTF-8"?>
<!DOCTYPE svg PUBLIC "-//W3C//DTD SVG 1.0//EN" "http://www.w3.org/TR/2001/REC-SVG-20010904/DTD/svg10.dtd">
<!-- Creator: CorelDRAW -->
<svg xmlns="http://www.w3.org/2000/svg" xml:space="preserve" width="591px" height="186px" version="1.0" shape-rendering="geometricPrecision" text-rendering="geometricPrecision" image-rendering="optimizeQuality" fill-rule="evenodd" clip-rule="evenodd"
viewBox="0 0 489.09 153.76">

   <path fill="#222225" fill-rule="nonzero" d="M253.45 53.69l0 20.47c0,9.17 2.31,12.34 11.12,15.15 1.73,0.55 3.53,0.95 5.32,1.28 14.29,2.64 25.09,-1.09 32.28,-14.02 8.27,-14.87 7.72,-30.79 2.93,-46.54 -3.28,-10.77 -14.65,-16.78 -24.5,-15.71 -8.81,0.96 -17.06,4.16 -24.44,9.32 -1.86,1.3 -2.92,2.53 -2.82,5.2 0.31,8.27 0.11,16.57 0.11,24.85zm-0.36 -40.51c13.44,-7.06 26.25,-14.88 42.11,-12.63 9.73,1.38 16.89,7.05 22.62,14.5 8.13,10.58 10.84,22.93 9.69,35.97 -1.37,15.44 -6.4,29.41 -18.07,40.39 -6.26,5.89 -13.76,8.99 -22.03,10.56 -10.84,2.07 -21.32,1.11 -31.42,-3.61 -2.31,-1.08 -3.65,-0.46 -3.6,2.74 0.2,12.68 0.16,25.36 0.03,38.04 -0.03,2.99 1.07,3.95 3.95,3.86 5.19,-0.15 10.4,0.07 15.6,-0.1 2.21,-0.07 3.01,0.29 3.03,2.8 0.06,7.24 -0.49,7.99 -7.65,7.99 -14.47,0 -28.94,-0.08 -43.41,0.07 -2.83,0.03 -3.89,-0.37 -3.75,-3.57 0.32,-7.64 -0.9,-7.3 7.39,-7.25 7.57,0.05 7.36,1.17 7.35,-7.18 -0.04,-38.2 -0.08,-76.41 0.08,-114.61 0.02,-4.16 -1.2,-5.58 -5.23,-5.06 -2.08,0.27 -4.23,0.05 -6.34,0.05 -6.5,0 -6.17,0 -6.18,-6.43 -0.01,-4.88 4.22,-3.83 6.07,-4.1 8.37,-1.23 16.41,-3.89 24.7,-5.44 2.86,-0.54 1.99,0.27 2.6,1.82 1.42,3.62 0.1,7.77 2.46,11.19z"/>
   <path fill="#222225" fill-rule="nonzero" d="M394.1 59.06c-3.09,0 -5.54,-0.17 -7.95,0.03 -7.55,0.63 -14.68,2.31 -19.84,8.56 -6,7.27 -5.08,18.16 5.28,21.68 8.12,2.76 15.78,0.05 23.27,-2.92 6.93,-2.75 11.81,-6.91 9.81,-15.39 -0.04,-0.16 0,-0.33 -0.01,-0.49 -0.07,-3.69 1.25,-8.54 -0.59,-10.77 -1.94,-2.34 -6.97,-0.36 -9.97,-0.7zm28.12 -0.65c0,9.27 0.11,18.53 -0.06,27.79 -0.05,3.2 1.03,4.39 4.18,4.12 2.26,-0.2 4.55,-0.04 6.83,-0.04 6.82,0 6.79,0 6.64,6.87 -0.04,1.67 0.05,2.5 -2.29,3.03 -7.68,1.74 -15.42,2.7 -23.25,2.68 -3.89,-0.01 -5.09,-4.19 -6.5,-6.76 -2.09,-3.81 -3.87,-3.7 -7.19,-1.98 -9.87,5.11 -20.14,9.48 -31.5,8.73 -11.51,-0.76 -23.56,-8.39 -25.8,-21.54 -0.69,-4.07 1.1,-8.27 2.99,-11.86 5.72,-10.8 15.58,-16.1 26.96,-19.18 9.54,-2.58 19.27,-1.94 28.96,-1.88 2.53,0.02 3.75,-0.3 3.51,-3.27 -0.62,-7.56 -1.02,-15.16 -3.89,-22.29 -2.65,-6.53 -12.74,-10.31 -20.49,-8.26 -8.12,2.14 -14.86,6.56 -20.82,12.21 -2.11,2 -3.11,2.29 -5.27,0.05 -5.71,-5.91 -5.95,-5.91 -0.07,-11.38 12.15,-11.3 26.55,-17.24 43.1,-14.73 10.01,1.52 17.16,8.29 21.02,17.93 2.35,5.86 3.17,11.98 2.99,18.31 -0.2,7.15 -0.05,14.3 -0.05,21.45z"/>
   <path fill="#222225" fill-rule="nonzero" d="M186.3 51.61c-0.58,-6.9 -0.84,-13.75 -3.09,-20.31 -5.25,-15.27 -14.73,-20.67 -26.92,-20.84 -12.22,-0.17 -22.89,8.7 -26.76,20.59 -3.52,10.82 -3.61,21.81 -1.99,33 2.28,15.69 12.85,30.8 33.08,28.1 6.87,-0.92 12.41,-4.1 16.88,-9.99 7.01,-9.25 7.79,-19.85 8.8,-30.55zm-25.61 -51.16c11.53,-0.86 22.85,3.68 31.93,13.08 6.83,7.07 10.6,15.83 12.17,25.74 1.85,11.73 0.49,22.8 -3.97,33.76 -5.8,14.23 -20.67,27.08 -36.85,29.15 -10.67,1.37 -20.95,0.89 -30.66,-3.2 -12.82,-5.39 -20.66,-15.52 -24.51,-28.91 -4.73,-16.46 -2.88,-32.11 6.17,-46.52 10.07,-16.06 25.07,-23.49 45.72,-23.1z"/>
   <path fill="#222225" fill-rule="nonzero" d="M22.53 89.3c13.12,0 26.25,0.16 39.37,-0.07 7.43,-0.12 9.6,-1.99 12.03,-9.7 1.18,-3.75 2.56,-7.41 3.86,-11.11 0.8,-2.29 1.57,-2.99 4.05,-2.09 2.71,0.98 6.74,0.37 8.21,2.13 1.61,1.92 -1,5.32 -1.5,8.15 -1.32,7.36 -4.08,14.4 -5,21.88 -0.15,1.27 -1.24,2.65 -3.65,2.64 -24.38,-0.19 -48.76,-0.24 -73.14,0 -4.15,0.04 -4.48,-2.88 -5.48,-5.17 -0.93,-2.13 -2.42,-4.17 0.16,-7.07 11.35,-12.74 22.21,-25.92 33.3,-38.89 8.24,-9.64 16.59,-19.18 24.85,-28.79 2.01,-2.34 3.85,-4.82 6.49,-8.15 -14.3,0.85 -27.58,-1.05 -40.84,1.09 -2.43,0.39 -3.4,1.5 -4.04,3.82 -1.37,4.94 -3.17,9.76 -4.8,14.63 -0.83,2.47 -2.03,4.24 -4.98,2.49 -0.14,-0.09 -0.26,-0.28 -0.39,-0.29 -2.89,-0.1 -6.75,0.02 -7.94,-2.14 -0.98,-1.78 0.89,-5.17 1.61,-7.82 1.78,-6.63 2.66,-13.47 4.67,-20.07 0.62,-2.04 1.2,-2.33 3.01,-2.32 22.75,0.05 45.51,0.07 68.27,-0.03 2.12,-0.01 2.91,0.4 3.34,2.57 0.52,2.64 1.75,5.14 2.58,7.72 0.38,1.16 -0.09,2.07 -0.94,3.02 -6.96,7.83 -13.87,15.71 -20.74,23.63 -12.46,14.36 -24.85,28.78 -37.35,43.11 -1.77,2.02 -4,3.64 -6.01,5.44l1 1.39z"/>
   <path fill="#373535" d="M475.42 71.65c7.55,0 13.67,6.12 13.67,13.68 0,7.55 -6.12,13.67 -13.67,13.67 -7.56,0 -13.68,-6.12 -13.68,-13.67 0,-7.56 6.12,-13.68 13.68,-13.68z"/>

</svg>
