<svg width="20" height="20" viewBox="0 0 20 20" fill="none" xmlns="http://www.w3.org/2000/svg">
<path fill-rule="evenodd" clip-rule="evenodd" d="M9.09091 1.81818C5.07429 1.81818 1.81818 5.07429 1.81818 9.09091C1.81818 13.1075 5.07429 16.3636 9.09091 16.3636C13.1075 16.3636 16.3636 13.1075 16.3636 9.09091C16.3636 5.07429 13.1075 1.81818 9.09091 1.81818ZM0 9.09091C0 4.07014 4.07014 0 9.09091 0C14.1117 0 18.1818 4.07014 18.1818 9.09091C18.1818 14.1117 14.1117 18.1818 9.09091 18.1818C4.07014 18.1818 0 14.1117 0 9.09091Z" fill="black"/>
<path fill-rule="evenodd" clip-rule="evenodd" d="M14.8117 14.8117C15.1667 14.4567 15.7423 14.4567 16.0973 14.8117L19.7337 18.448C20.0887 18.8031 20.0887 19.3787 19.7337 19.7337C19.3787 20.0887 18.8031 20.0887 18.4481 19.7337L14.8117 16.0973C14.4567 15.7423 14.4567 15.1667 14.8117 14.8117Z" fill="black"/>
</svg>
